<svg width="20" height="20" fill="none" xmlns="http://www.w3.org/2000/svg"><path d="M10 5a5 5 0 100 10 5 5 0 000-10zm0 8a3 3 0 110-6 3 3 0 010 6zm5-9a1 1 0 100 2 1 1 0 000-2zm4.94 2.24a7.51 7.51 0 00-.48-2.5 5.56 5.56 0 00-3.2-3.2 7.51 7.51 0 00-2.5-.48C12.79 0 12.47 0 10 0 7.53 0 7.21 0 6.24.06a7.51 7.51 0 00-2.5.48 5.56 5.56 0 00-3.2 3.2 7.51 7.51 0 00-.48 2.5C0 7.22 0 7.54 0 10s0 2.78.06 3.76c.017.855.179 1.7.48 2.5a5.56 5.56 0 003.2 3.2 7.51 7.51 0 002.5.48c1 0 1.29.06 3.76.06 2.47 0 2.79 0 3.76-.06a7.51 7.51 0 002.5-.48 5.56 5.56 0 003.2-3.2 7.51 7.51 0 00.48-2.5c0-1 .06-1.3.06-3.76s0-2.78-.06-3.76zm-2 7.43a6 6 0 01-.35 1.86 3.4 3.4 0 01-.82 1.25 3.26 3.26 0 01-1.25.81 5.75 5.75 0 01-1.87.36c-.94 0-1.23.05-3.66.05H6.34a6 6 0 01-1.87-.35 3.4 3.4 0 01-1.25-.82 3.26 3.26 0 01-.81-1.25 5.74 5.74 0 01-.36-1.86V6.38a5.86 5.86 0 01.36-1.87 3.3 3.3 0 01.81-1.24 3.26 3.26 0 011.25-.81 5.75 5.75 0 011.87-.36C7.28 2 7.57 2 10 2h3.66a5.87 5.87 0 011.88.36 3.3 3.3 0 011.24.81c.363.349.64.776.81 1.25A5.74 5.74 0 0118 6.33c0 1 .05 1.25.05 3.67S18 12.71 18 13.67h-.06z" fill="#232E35"/></svg>