<svg width="114" height="41" fill="none" xmlns="http://www.w3.org/2000/svg"><g clip-path="url(#clip0_1_267)" fill="#232E35"><path d="M56.3 30.5h3.5l1.3-3.8H68l1.3 3.8h3.6l-6.2-17.9h-4.2l-6.2 17.9zm5.7-6.7l2.5-7.5 2.5 7.5h-5zm12.5 6.7h3.1V12.3h-3.1v18.2zm12.3.3c1.3 0 2.5-.3 3.5-.9 1-.6 1.7-1.4 2.1-2.3l-2.5-1.2c-.3.5-.7.9-1.2 1.2-.5.3-1.1.5-1.8.5-.9 0-1.7-.3-2.4-.9-.7-.6-1-1.3-1.1-2.3h9.4c.1-.2.1-.4.1-.6v-.7c0-1.2-.2-2.2-.7-3.2-.5-1-1.2-1.7-2.2-2.3-.9-.6-2.1-.9-3.5-.9-1.2 0-2.3.3-3.3.9-1 .6-1.8 1.4-2.3 2.4-.6 1-.8 2.2-.8 3.5 0 1.3.3 2.4.8 3.5.6 1 1.3 1.9 2.4 2.5 1 .5 2.1.8 3.5.8zm-.3-11.1c.8 0 1.5.3 2.1.8.6.5.9 1.1.9 1.9h-6.1c.2-.9.5-1.5 1.1-2 .6-.4 1.3-.7 2-.7zm7.4 10.8h3.7l2.7-4.1 2.7 4.1h3.7l-4.5-6.6 4.6-6.5h-3.7l-2.7 4.1-2.8-4.1h-3.7l4.6 6.5-4.6 6.6zm16 0h3.2v-3.4h-3.2v3.4zM20 .5c-11 0-20 9-20 20s9 20 20 20 20-9 20-20-9-20-20-20zM11.8 28c-2.2 0-4-1.8-4-4s1.8-4 4-4 4 1.8 4 4-1.8 4-4 4zm16.7-1.1c-1.8 1.1-4.2.4-5.3-1.4l-5.6-9.7c-1.1-1.8-.4-4.2 1.4-5.3 1.8-1.1 4.2-.4 5.3 1.4l5.6 9.7c1.1 1.9.4 4.3-1.4 5.3z"/></g><defs><clipPath id="clip0_1_267"><path fill="#fff" d="M0 0h114v41H0z"/></clipPath></defs></svg>